<?xml version="1.0" encoding="utf-8"?>
<!-- Svg Vector Icons : http://www.onlinewebfonts.com/icon -->
<!DOCTYPE svg PUBLIC "-//W3C//DTD SVG 1.1//EN" "http://www.w3.org/Graphics/SVG/1.1/DTD/svg11.dtd">
<svg version="1.1" xmlns="http://www.w3.org/2000/svg" xmlns:xlink="http://www.w3.org/1999/xlink" x="0px" y="0px" viewBox="0 0 1000 1000" enable-background="new 0 0 1000 1000" xml:space="preserve">
<metadata> Svg Vector Icons : http://www.onlinewebfonts.com/icon </metadata>
<g><path d="M702.1,297.9c-15.9-15.9-42.3-15.4-58,0.2L500,442.2L355.9,298.1c-15.7-15.7-42.1-16.2-58-0.2c-15.5,15.5-15.9,41.9,0.2,58L442.2,500L298.1,644.1c-16.1,16.1-15.7,42.4-0.2,58c15.9,15.9,42.2,15.4,57.9-0.2L500,557.8l144.1,144.1c15.7,15.7,42.1,16.2,58,0.2c15.5-15.5,15.9-41.9-0.2-58L557.8,500l144.1-144.1C718,339.8,717.6,313.4,702.1,297.9z"/><path d="M500,10C229.3,10,10,229.3,10,500c0,270.7,219.3,490,490,490c270.7,0,490-219.3,490-490C990,229.3,770.7,10,500,10z M500,941C256.5,941,59,743.5,59,500C59,256.5,256.5,59,500,59c243.5,0,441,197.5,441,441C941,743.5,743.5,941,500,941z"/></g>
</svg>